<svg width="183" height="40" viewBox="0 0 183 40" fill="none" xmlns="http://www.w3.org/2000/svg">
<path d="M62.2045 28.75H56.017V11.2955H62.2557C64.0114 11.2955 65.5227 11.6449 66.7898 12.3438C68.0568 13.0369 69.0313 14.0341 69.7131 15.3352C70.4006 16.6364 70.7443 18.1932 70.7443 20.0057C70.7443 21.8239 70.4006 23.3864 69.7131 24.6932C69.0313 26 68.0511 27.0028 66.7727 27.7017C65.5 28.4006 63.9773 28.75 62.2045 28.75ZM59.7074 25.5881H62.0511C63.142 25.5881 64.0597 25.3949 64.804 25.0085C65.554 24.6165 66.1165 24.0114 66.4915 23.1932C66.8722 22.3693 67.0625 21.3068 67.0625 20.0057C67.0625 18.7159 66.8722 17.6619 66.4915 16.8438C66.1165 16.0256 65.5568 15.4233 64.8125 15.0369C64.0682 14.6506 63.1506 14.4574 62.0597 14.4574H59.7074V25.5881ZM73.478 28.75V11.2955H85.2393V14.3381H77.1683V18.4972H84.6342V21.5398H77.1683V25.7074H85.2734V28.75H73.478Z" fill="#0A65CC"/>
<path d="M17.4176 16.9062H13.6847C13.6165 16.4233 13.4773 15.9943 13.267 15.6193C13.0568 15.2386 12.7869 14.9148 12.4574 14.6477C12.1278 14.3807 11.7472 14.1761 11.3153 14.0341C10.8892 13.892 10.4261 13.821 9.92614 13.821C9.02273 13.821 8.2358 14.0455 7.56534 14.4943C6.89489 14.9375 6.375 15.5852 6.00568 16.4375C5.63636 17.2841 5.4517 18.3125 5.4517 19.5227C5.4517 20.767 5.63636 21.8125 6.00568 22.6591C6.38068 23.5057 6.90341 24.1449 7.57386 24.5767C8.24432 25.0085 9.01989 25.2244 9.90057 25.2244C10.3949 25.2244 10.8523 25.1591 11.2727 25.0284C11.6989 24.8977 12.0767 24.7074 12.4062 24.4574C12.7358 24.2017 13.0085 23.892 13.2244 23.5284C13.446 23.1648 13.5994 22.75 13.6847 22.2841L17.4176 22.3011C17.321 23.1023 17.0795 23.875 16.6932 24.6193C16.3125 25.358 15.7983 26.0199 15.1506 26.6051C14.5085 27.1847 13.7415 27.6449 12.8494 27.9858C11.9631 28.321 10.9602 28.4886 9.84091 28.4886C8.28409 28.4886 6.89205 28.1364 5.66477 27.4318C4.44318 26.7273 3.47727 25.7074 2.76705 24.3722C2.0625 23.0369 1.71023 21.4205 1.71023 19.5227C1.71023 17.6193 2.06818 16 2.78409 14.6648C3.5 13.3295 4.47159 12.3125 5.69886 11.6136C6.92614 10.9091 8.30682 10.5568 9.84091 10.5568C10.8523 10.5568 11.7898 10.6989 12.6534 10.983C13.5227 11.267 14.2926 11.6818 14.9631 12.2273C15.6335 12.767 16.179 13.429 16.5994 14.2131C17.0256 14.9972 17.2983 15.8949 17.4176 16.9062Z" fill="#0A65CC"/>
<path d="M43.5 27L47.5 18.7285L43.5 10.75" stroke="#0A65CC" stroke-width="4" stroke-miterlimit="10" stroke-linecap="round"/>
<path d="M27.5 10.75L23.5 19.0161L27.5 27" stroke="#0A65CC" stroke-width="4" stroke-miterlimit="10" stroke-linecap="round"/>
<path d="M37.0301 16.4375H33.9699C33.1581 16.4375 32.5 16.9722 32.5 17.6318V20.1182C32.5 20.7778 33.1581 21.3125 33.9699 21.3125H37.0301C37.8419 21.3125 38.5 20.7778 38.5 20.1182V17.6318C38.5 16.9722 37.8419 16.4375 37.0301 16.4375Z" fill="#0A65CC"/>
<path d="M93.2351 29L87.9439 10.8182H92.8001L95.5433 22.7322H95.6942L98.8281 10.8182H102.788L105.922 22.7589H106.072L108.825 10.8182H113.672L108.39 29H104.155L100.879 17.9737H100.737L97.4609 29H93.2351ZM120.348 29.2575C118.922 29.2575 117.691 28.9763 116.655 28.4141C115.625 27.8459 114.832 27.038 114.276 25.9904C113.725 24.9369 113.45 23.6851 113.45 22.2351C113.45 20.8265 113.728 19.5954 114.284 18.5419C114.841 17.4825 115.625 16.6598 116.637 16.0739C117.649 15.482 118.842 15.1861 120.215 15.1861C121.185 15.1861 122.073 15.337 122.878 15.6388C123.683 15.9407 124.379 16.3875 124.964 16.9794C125.55 17.5713 126.006 18.3022 126.332 19.1722C126.657 20.0363 126.82 21.0277 126.82 22.1463V23.2294H114.968V20.7081H122.781C122.775 20.2464 122.665 19.8351 122.452 19.4741C122.239 19.113 121.946 18.8319 121.573 18.6307C121.206 18.4235 120.783 18.32 120.304 18.32C119.818 18.32 119.383 18.4295 118.999 18.6484C118.614 18.8615 118.309 19.1545 118.084 19.5273C117.859 19.8943 117.741 20.3116 117.729 20.7791V23.3448C117.729 23.9012 117.839 24.3894 118.058 24.8097C118.277 25.224 118.587 25.5465 118.99 25.7773C119.392 26.0082 119.872 26.1236 120.428 26.1236C120.813 26.1236 121.162 26.0703 121.475 25.9638C121.789 25.8572 122.058 25.7004 122.283 25.4933C122.508 25.2861 122.677 25.0316 122.789 24.7298L126.776 24.8452C126.61 25.7389 126.246 26.5172 125.684 27.18C125.127 27.837 124.396 28.349 123.491 28.7159C122.585 29.0769 121.538 29.2575 120.348 29.2575ZM132.881 29.2308C132.011 29.2308 131.239 29.0858 130.564 28.7958C129.895 28.4999 129.366 28.056 128.975 27.4641C128.59 26.8664 128.398 26.1177 128.398 25.218C128.398 24.4605 128.531 23.8213 128.797 23.3004C129.064 22.7796 129.431 22.3564 129.898 22.0309C130.366 21.7054 130.905 21.4598 131.514 21.294C132.124 21.1224 132.775 21.007 133.467 20.9478C134.243 20.8768 134.867 20.8028 135.34 20.7259C135.814 20.643 136.157 20.5276 136.37 20.3796C136.589 20.2257 136.699 20.0097 136.699 19.7315V19.6871C136.699 19.2314 136.542 18.8793 136.228 18.6307C135.915 18.3821 135.491 18.2578 134.959 18.2578C134.385 18.2578 133.923 18.3821 133.574 18.6307C133.225 18.8793 133.003 19.2225 132.908 19.6605L128.904 19.5185C129.022 18.6899 129.327 17.95 129.818 17.299C130.316 16.642 130.996 16.1271 131.86 15.7543C132.73 15.3755 133.775 15.1861 134.994 15.1861C135.864 15.1861 136.666 15.2897 137.4 15.4968C138.134 15.698 138.773 15.994 139.318 16.3846C139.862 16.7693 140.282 17.2428 140.578 17.805C140.88 18.3673 141.031 19.0095 141.031 19.7315V29H136.947V27.1001H136.841C136.598 27.5618 136.287 27.9524 135.909 28.272C135.536 28.5916 135.095 28.8313 134.586 28.9911C134.083 29.1509 133.515 29.2308 132.881 29.2308ZM134.222 26.3899C134.689 26.3899 135.11 26.2952 135.483 26.1058C135.861 25.9164 136.163 25.656 136.388 25.3246C136.613 24.9872 136.725 24.5966 136.725 24.1527V22.8565C136.601 22.9216 136.45 22.9808 136.273 23.0341C136.101 23.0874 135.912 23.1377 135.704 23.185C135.497 23.2324 135.284 23.2738 135.065 23.3093C134.846 23.3448 134.636 23.3774 134.435 23.407C134.027 23.4721 133.677 23.5727 133.387 23.7088C133.103 23.8449 132.884 24.0225 132.73 24.2415C132.582 24.4545 132.508 24.709 132.508 25.005C132.508 25.4548 132.668 25.7981 132.988 26.0348C133.313 26.2715 133.725 26.3899 134.222 26.3899ZM156.425 15.3636L151.747 29H146.775L142.105 15.3636H146.677L149.19 24.7564H149.332L151.853 15.3636H156.425ZM164.025 29.2575C162.598 29.2575 161.367 28.9763 160.332 28.4141C159.302 27.8459 158.509 27.038 157.952 25.9904C157.402 24.9369 157.127 23.6851 157.127 22.2351C157.127 20.8265 157.405 19.5954 157.961 18.5419C158.518 17.4825 159.302 16.6598 160.314 16.0739C161.326 15.482 162.518 15.1861 163.892 15.1861C164.862 15.1861 165.75 15.337 166.555 15.6388C167.36 15.9407 168.055 16.3875 168.641 16.9794C169.227 17.5713 169.683 18.3022 170.008 19.1722C170.334 20.0363 170.497 21.0277 170.497 22.1463V23.2294H158.645V20.7081H166.457C166.451 20.2464 166.342 19.8351 166.129 19.4741C165.916 19.113 165.623 18.8319 165.25 18.6307C164.883 18.4235 164.46 18.32 163.98 18.32C163.495 18.32 163.06 18.4295 162.675 18.6484C162.291 18.8615 161.986 19.1545 161.761 19.5273C161.536 19.8943 161.418 20.3116 161.406 20.7791V23.3448C161.406 23.9012 161.515 24.3894 161.734 24.8097C161.953 25.224 162.264 25.5465 162.666 25.7773C163.069 26.0082 163.548 26.1236 164.105 26.1236C164.489 26.1236 164.839 26.0703 165.152 25.9638C165.466 25.8572 165.735 25.7004 165.96 25.4933C166.185 25.2861 166.354 25.0316 166.466 24.7298L170.452 24.8452C170.287 25.7389 169.923 26.5172 169.36 27.18C168.804 27.837 168.073 28.349 167.168 28.7159C166.262 29.0769 165.214 29.2575 164.025 29.2575ZM172.714 29V15.3636H176.931V17.8494H177.073C177.322 16.9498 177.727 16.281 178.289 15.843C178.852 15.3991 179.506 15.1772 180.251 15.1772C180.452 15.1772 180.66 15.192 180.873 15.2216C181.086 15.2453 181.284 15.2837 181.468 15.337V19.1101C181.26 19.0391 180.988 18.9828 180.651 18.9414C180.319 18.9 180.023 18.8793 179.763 18.8793C179.248 18.8793 178.783 18.9947 178.369 19.2255C177.961 19.4504 177.638 19.767 177.401 20.1754C177.171 20.5779 177.055 21.0514 177.055 21.5959V29H172.714Z" fill="#18191C"/>
</svg>
